<svg width="24" height="24" viewBox="0 0 24 24" fill="none" xmlns="http://www.w3.org/2000/svg">
<path d="M11 7V8H12V18H11V17H10V16H9V15H8V14H7V13H6V12H5V8H6V7H7V6H10V7H11Z" fill="#FF0000"/>
<path d="M10 6H11V7H10V6Z" fill="black"/>
<path d="M11 9H12V7L11 8V9Z" fill="black"/>
<path d="M6 6H7V7H6V6Z" fill="black"/>
<path d="M5 7H6V8H5V7Z" fill="black"/>
<path d="M11 11V10H12V11H11Z" fill="black"/>
<path d="M5 12H6V13H5V12Z" fill="black"/>
<path d="M11 11H12V12H11V11Z" fill="black"/>
<path d="M9 16H10V17H9V16Z" fill="black"/>
<path d="M11 15V16V17L12 16V15H11Z" fill="black"/>
<path d="M10 17H11V18H10V17Z" fill="black"/>
<path d="M11 17V18H12V17V16L11 17Z" fill="black"/>
<path d="M8 15H9V16H8V15Z" fill="black"/>
<path d="M12 14H11V15H12V14Z" fill="black"/>
<path d="M7 14H8V15H7V14Z" fill="black"/>
<path d="M11 13V14H12V13H11Z" fill="black"/>
<path d="M6 13H7V14H6V13Z" fill="black"/>
<path d="M12 12H11V13H12V12Z" fill="black"/>
<path d="M7 5V6H10V5H7Z" fill="black"/>
<path d="M12 9V10H11V9H12Z" fill="black"/>
<path d="M4 12H5V8H4V12Z" fill="black"/>
<path d="M11 18V19H12V18H11Z" fill="black"/>
<path d="M11 7V8H12V7H11Z" fill="black"/>
</svg>
